<svg width="168" height="24" viewBox="0 0 168 24" fill="none" xmlns="http://www.w3.org/2000/svg">
<path fill-rule="evenodd" clip-rule="evenodd" d="M3.82937 16.4406C5.45663 18.3074 8.10592 19.444 11.0343 19.444C13.8834 19.444 16.4677 18.3794 18.0865 16.6116L21.4466 19.6883C18.8312 22.5445 14.9492 24 11.0343 24C6.99379 24 3.01347 22.4382 0.39502 19.4343L3.82937 16.4406Z" fill="#6E42D3"/>
<path fill-rule="evenodd" clip-rule="evenodd" d="M7.81585 15.7353C9.18886 16.2449 10.6581 16.3857 12.2235 16.158C13.7401 15.9373 15.0582 15.3969 16.2123 14.5395C16.3876 14.4093 16.5584 14.2759 16.7239 14.1388L16.7291 14.141L16.8026 14.073C17.0335 13.8781 17.2536 13.6757 17.461 13.4643L26.7901 4.83922L19.4816 5.01984L14.7398 9.36434L14.7259 9.35744C14.7222 9.36767 14.7182 9.37786 14.714 9.38803L13.5144 10.4871C13.3832 10.5776 13.261 10.664 13.1596 10.7464C12.6935 11.114 12.1523 11.3426 11.5359 11.4323C10.5868 11.5704 9.75365 11.3719 9.03636 10.8368C8.31906 10.3018 7.89136 9.55972 7.75326 8.61067C7.61516 7.66162 7.81364 6.82844 8.3487 6.11115C8.88234 5.38407 9.62368 4.95148 10.5727 4.81338C11.1891 4.72368 11.7738 4.79347 12.3267 5.02275C12.8782 5.24223 13.3279 5.58643 13.6759 6.05533L17.3516 2.66534C16.4665 1.59519 15.5385 1.00351 14.1879 0.510652C12.8373 0.0177899 11.4037 -0.118303 9.88721 0.102373C8.32177 0.330167 6.95434 0.88883 5.78492 1.77836C4.62387 2.65669 3.77521 3.75932 3.23894 5.08625C2.70267 6.41318 2.54416 7.83002 2.76341 9.33676C2.98266 10.8435 3.53839 12.1564 4.43059 13.2755C5.32278 14.3945 6.45121 15.2145 7.81585 15.7353Z" fill="#6E42D3"/>
<path d="M161.578 21.0734C160.405 21.0734 159.234 20.8546 158.068 20.4171C156.908 19.9723 155.935 19.3817 155.147 18.6453L156.744 16.2937C157.386 16.9062 158.137 17.3984 158.997 17.7703C159.865 18.1348 160.725 18.3171 161.578 18.3171C162.366 18.3171 163.037 18.1494 163.591 17.814C164.145 17.4786 164.422 17.0484 164.422 16.5234C164.422 16.3411 164.382 16.1734 164.302 16.0203C164.229 15.8598 164.145 15.7249 164.05 15.6156C163.956 15.4989 163.802 15.3859 163.591 15.2765C163.387 15.1598 163.212 15.0723 163.066 15.014C162.927 14.9484 162.712 14.8718 162.421 14.7843C162.136 14.6968 161.921 14.6385 161.775 14.6093C161.637 14.5729 161.407 14.5145 161.086 14.4343C160.474 14.2885 159.909 14.1208 159.391 13.9312C158.873 13.7416 158.381 13.5083 157.914 13.2312C157.455 12.9468 157.065 12.6333 156.744 12.2906C156.423 11.9479 156.168 11.5505 155.978 11.0984C155.796 10.639 155.705 10.1468 155.705 9.62182C155.705 8.25099 156.248 7.14995 157.335 6.3187C158.421 5.48745 159.836 5.07182 161.578 5.07182C162.694 5.07182 163.715 5.24682 164.641 5.59682C165.574 5.94682 166.336 6.41349 166.927 6.99682L165.494 9.32651C165.042 8.88901 164.455 8.53172 163.733 8.25463C163.019 7.97026 162.286 7.82807 161.535 7.82807C160.762 7.82807 160.127 7.98484 159.632 8.29838C159.136 8.61192 158.888 9.00932 158.888 9.49057C158.888 9.77494 158.975 10.0302 159.15 10.2562C159.325 10.4822 159.573 10.6755 159.894 10.8359C160.215 10.989 160.532 11.1166 160.846 11.2187C161.159 11.3135 161.524 11.4083 161.939 11.5031C162.209 11.5614 162.464 11.6234 162.705 11.689C162.953 11.7473 163.277 11.8458 163.678 11.9843C164.08 12.1229 164.444 12.276 164.772 12.4437C165.108 12.6041 165.458 12.8156 165.822 13.0781C166.187 13.3406 166.493 13.6249 166.741 13.9312C166.989 14.2301 167.193 14.5947 167.353 15.0249C167.521 15.4479 167.605 15.9036 167.605 16.3921C167.605 17.2963 167.339 18.1093 166.807 18.8312C166.274 19.5458 165.549 20.0999 164.63 20.4937C163.719 20.8801 162.701 21.0734 161.578 21.0734Z" fill="#000D25"/>
<path d="M149.476 5.34518H153.293V20.7999H150.198V10.1795L145.921 18.0217H144.171L139.917 10.1795V20.7999H136.821V5.34518H140.682L145.068 13.3842L149.476 5.34518Z" fill="#000D25"/>
<path d="M128.197 17.8905H134.934V20.7999H125.102V5.34518H128.197V17.8905Z" fill="#000D25"/>
<path d="M118.079 9.1953H118.571V12.2031H118.079C117.044 12.2031 116.234 12.4875 115.651 13.0562C115.075 13.625 114.787 14.3979 114.787 15.375V20.8H111.877V9.38123H114.787V10.8578C115.662 9.74946 116.759 9.1953 118.079 9.1953Z" fill="#000D25"/>
<path d="M108.251 19.3561C107.077 20.5009 105.619 21.0733 103.876 21.0733C102.133 21.0733 100.671 20.5009 99.4902 19.3561C98.3162 18.2113 97.7292 16.7894 97.7292 15.0905C97.7292 13.3915 98.3162 11.9696 99.4902 10.8248C100.671 9.68005 102.133 9.10766 103.876 9.10766C105.619 9.10766 107.077 9.68005 108.251 10.8248C109.425 11.9696 110.012 13.3915 110.012 15.0905C110.012 16.7894 109.425 18.2113 108.251 19.3561ZM103.876 18.2514C104.78 18.2514 105.528 17.9524 106.118 17.3545C106.709 16.7493 107.004 15.9946 107.004 15.0905C107.004 14.1863 106.709 13.4353 106.118 12.8373C105.528 12.2321 104.78 11.9295 103.876 11.9295C102.979 11.9295 102.232 12.2321 101.634 12.8373C101.036 13.4426 100.737 14.1936 100.737 15.0905C100.737 15.9873 101.036 16.7384 101.634 17.3436C102.232 17.9488 102.979 18.2514 103.876 18.2514Z" fill="#000D25"/>
<path d="M96.849 12.0389H93.7755V16.7858C93.7755 17.7629 94.3005 18.2514 95.3505 18.2514C95.7953 18.2514 96.2948 18.1238 96.849 17.8686V20.5811C96.2438 20.9092 95.5328 21.0733 94.7162 21.0733C93.4401 21.0733 92.4776 20.7342 91.8287 20.0561C91.187 19.3707 90.8662 18.4373 90.8662 17.2561V12.0389H89.0505V9.38109H90.8662V6.48266H93.7755V9.38109H96.849V12.0389Z" fill="#000D25"/>
<path d="M84.3635 9.3811H87.2729V20.7998H84.3635V19.4327C83.3646 20.5264 82.125 21.0733 80.6448 21.0733C79.0552 21.0733 77.7281 20.5009 76.6635 19.3561C75.5989 18.2113 75.0667 16.7894 75.0667 15.0905C75.0667 13.3915 75.5989 11.9696 76.6635 10.8248C77.7281 9.68005 79.0552 9.10766 80.6448 9.10766C82.1323 9.10766 83.3719 9.65089 84.3635 10.7373V9.3811ZM81.2026 18.2514C82.1068 18.2514 82.8578 17.9488 83.4557 17.3436C84.0609 16.7384 84.3635 15.9873 84.3635 15.0905C84.3635 14.1936 84.0609 13.4426 83.4557 12.8373C82.8578 12.2321 82.1068 11.9295 81.2026 11.9295C80.3057 11.9295 79.5583 12.2321 78.9604 12.8373C78.3625 13.4426 78.0635 14.1936 78.0635 15.0905C78.0635 15.9873 78.3625 16.7384 78.9604 17.3436C79.5583 17.9488 80.3057 18.2514 81.2026 18.2514Z" fill="#000D25"/>
<path d="M73.9014 15.1123C73.9014 15.4769 73.8795 15.8196 73.8358 16.1405H64.9874C65.1915 16.8623 65.5816 17.4347 66.1577 17.8577C66.7337 18.2806 67.4337 18.492 68.2577 18.492C68.9212 18.492 69.5301 18.3608 70.0842 18.0983C70.6384 17.8285 71.0759 17.4894 71.3967 17.0811L73.3436 18.7873C72.7384 19.5092 71.9874 20.0707 71.0905 20.4717C70.2009 20.8728 69.2275 21.0733 68.1702 21.0733C66.9743 21.0733 65.8915 20.8108 64.9217 20.2858C63.9519 19.7608 63.1936 19.0389 62.6467 18.1202C62.0999 17.1941 61.8264 16.1696 61.8264 15.0467C61.8264 13.9384 62.0889 12.9321 62.6139 12.028C63.1462 11.1165 63.8754 10.4019 64.8014 9.88422C65.7348 9.36651 66.7665 9.10766 67.8967 9.10766C69.6103 9.10766 71.0394 9.68005 72.1842 10.8248C73.329 11.9623 73.9014 13.3915 73.9014 15.1123ZM69.7233 12.3014C69.1983 11.8712 68.5821 11.6561 67.8749 11.6561C67.1676 11.6561 66.5514 11.8712 66.0264 12.3014C65.5014 12.7243 65.1478 13.2931 64.9655 14.0077H70.7952C70.6129 13.2931 70.2556 12.7243 69.7233 12.3014Z" fill="#000D25"/>
<path d="M60.8366 9.1953H61.3288V12.2031H60.8366C59.8012 12.2031 58.9918 12.4875 58.4084 13.0562C57.8324 13.625 57.5444 14.3979 57.5444 15.375V20.8H54.635V9.38123H57.5444V10.8578C58.4194 9.74946 59.5168 9.1953 60.8366 9.1953Z" fill="#000D25"/>
<path d="M46.1309 21.0735C44.9861 21.0735 43.9105 20.8693 42.9043 20.461C41.898 20.0453 41.034 19.4839 40.3121 18.7766C39.5902 18.0693 39.0215 17.2235 38.6059 16.2391C38.1902 15.2474 37.9824 14.1901 37.9824 13.0672C37.9824 11.9443 38.1902 10.8907 38.6059 9.90629C39.0215 8.91463 39.5902 8.06515 40.3121 7.35786C41.034 6.65057 41.898 6.09275 42.9043 5.68442C43.9105 5.27609 44.9861 5.07192 46.1309 5.07192C47.56 5.07192 48.8725 5.38182 50.0684 6.00161C51.2642 6.6214 52.2231 7.47088 52.9449 8.55004L50.2762 10.2016C49.8241 9.53077 49.2371 9.00577 48.5152 8.62661C47.7934 8.24744 46.9986 8.05786 46.1309 8.05786C44.7163 8.05786 43.5314 8.53546 42.5762 9.49067C41.6283 10.4459 41.1543 11.6381 41.1543 13.0672C41.1543 14.4964 41.6283 15.6922 42.5762 16.6547C43.5314 17.6099 44.7163 18.0875 46.1309 18.0875C46.9986 18.0875 47.7934 17.898 48.5152 17.5188C49.2371 17.1396 49.8241 16.6146 50.2762 15.9438L52.9449 17.5954C52.2231 18.6745 51.2642 19.524 50.0684 20.1438C48.8725 20.7636 47.56 21.0735 46.1309 21.0735Z" fill="#000D25"/>
</svg>
